<?xml version="1.0" standalone="no"?>
<!DOCTYPE svg PUBLIC "-//W3C//DTD SVG 20010904//EN"
 "http://www.w3.org/TR/2001/REC-SVG-20010904/DTD/svg10.dtd">
<svg version="1.0" xmlns="http://www.w3.org/2000/svg"
 width="256.000000pt" height="256.000000pt" viewBox="0 0 256.000000 256.000000"
 preserveAspectRatio="xMidYMid meet">

<g transform="translate(0.000000,256.000000) scale(0.100000,-0.100000)"
fill="#000000" stroke="none">
<path d="M1166 2152 c-2 -4 -1 -14 5 -22 15 -26 10 -76 -12 -104 -18 -23 -28
-26 -65 -25 -25 2 -50 9 -56 17 -7 7 -44 30 -82 49 -39 20 -83 44 -98 55 -27
19 -27 17 15 -69 38 -79 42 -97 45 -175 6 -143 -30 -237 -142 -366 -111 -129
-157 -244 -164 -412 -4 -98 -1 -128 17 -195 88 -319 370 -535 699 -535 108 0
186 14 272 47 206 81 371 268 427 483 19 75 24 273 7 290 -8 8 -28 1 -71 -25
l-60 -36 -6 -92 c-10 -155 -62 -271 -169 -374 -173 -165 -418 -200 -648 -91
-92 44 -205 158 -254 258 -162 331 -4 701 343 804 33 10 91 16 147 16 67 0 95
4 103 14 19 23 -3 29 -108 29 -152 1 -257 -33 -417 -138 -98 -64 -98 -49 -1
49 131 130 316 181 523 145 l62 -11 76 56 c86 65 106 95 105 163 -1 52 -2 51
-19 -15 -14 -55 -64 -113 -93 -108 -18 2 -23 11 -27 54 -3 28 -11 57 -18 64
-9 9 -12 9 -12 -4 0 -24 -41 -70 -57 -64 -8 3 -11 2 -8 -4 8 -14 -29 -30 -69
-30 -26 0 -36 5 -41 20 -4 11 -11 18 -16 14 -15 -9 -48 26 -42 44 3 11 2 13
-4 5 -6 -8 -15 -6 -32 8 -21 17 -22 23 -12 45 16 36 14 125 -5 152 -16 23 -29
28 -38 14z"/>
<path d="M1721 1930 c-2 -89 -42 -142 -174 -234 -112 -78 -186 -197 -207 -333
-6 -37 -12 -68 -13 -68 -1 -1 -21 -7 -45 -14 -44 -12 -105 -59 -124 -95 -20
-37 -27 -100 -16 -151 8 -40 20 -60 58 -96 111 -108 276 -77 334 63 19 45 21
98 4 98 -19 -1 -52 -31 -67 -61 -35 -71 -130 -78 -198 -16 -71 64 -13 186 89
187 19 1 45 10 61 24 l29 23 -41 17 c-23 9 -48 16 -56 16 -20 0 -2 46 33 83
26 27 26 27 37 6 10 -18 13 -14 24 38 18 82 41 152 53 159 8 5 9 -5 5 -31 -6
-37 -6 -37 14 -19 11 10 29 39 40 65 16 36 119 157 119 139 0 -3 -4 -20 -10
-38 -8 -30 -7 -32 6 -21 56 46 91 201 61 269 l-15 35 -1 -45z"/>
<path d="M655 1837 c35 -35 44 -71 29 -112 -8 -20 -62 -48 -80 -41 -21 8 -17
-8 13 -63 23 -41 26 -54 18 -77 -14 -39 -57 -54 -84 -30 -28 25 -44 79 -39
132 3 39 2 42 -10 27 -64 -86 -73 -174 -23 -251 17 -27 31 -54 31 -60 0 -6
-18 -48 -40 -93 -22 -46 -40 -94 -40 -107 l0 -24 20 23 20 24 -17 -45 c-10
-29 -17 -78 -17 -140 -1 -86 2 -100 28 -149 34 -65 114 -147 176 -180 39 -21
43 -22 28 -5 -26 30 -94 181 -109 244 -19 78 -17 250 4 330 24 92 87 216 154
301 95 122 112 174 78 239 -18 34 -84 76 -138 85 l-37 7 35 -35z"/>
<path d="M2011 1795 c-58 -41 -108 -80 -111 -87 -4 -7 -13 -52 -19 -100 -11
-74 -17 -89 -38 -103 l-24 -16 7 48 c4 26 16 60 26 74 12 15 18 38 16 54 l-3
27 -65 -47 c-36 -26 -66 -48 -67 -49 -4 -3 -25 -218 -21 -221 2 -3 57 31 123
75 107 72 135 84 135 61 0 -4 -66 -52 -146 -107 -130 -88 -143 -100 -122 -107
13 -5 58 -26 100 -48 l77 -39 188 116 c103 64 190 118 192 120 2 1 -12 9 -30
17 -19 8 -73 33 -121 56 l-87 40 50 148 c27 81 48 151 47 155 -2 5 -50 -25
-107 -67z"/>
<path d="M1230 1519 c-123 -24 -245 -122 -302 -245 -24 -52 -32 -83 -36 -153
-8 -143 30 -243 130 -347 213 -222 572 -172 709 97 27 53 33 79 37 146 2 45 2
93 -2 107 -9 38 -38 49 -78 30 -32 -15 -33 -17 -34 -82 -1 -117 -62 -213 -169
-270 -67 -36 -195 -38 -267 -5 -114 52 -188 165 -189 287 -1 154 87 270 234
307 29 7 51 19 53 28 3 9 13 37 24 64 l18 47 -41 -1 c-23 -1 -62 -5 -87 -10z"/>
<path d="M1508 1421 c-34 -48 -35 -54 -2 -71 33 -18 54 -5 73 44 13 34 12 38
-5 51 -28 21 -36 18 -66 -24z"/>
<path d="M1531 1244 c-91 -64 -133 -88 -159 -90 -39 -3 -62 -25 -62 -59 0 -27
30 -55 58 -55 24 0 62 32 62 53 0 7 61 50 136 97 117 73 133 86 115 93 -11 5
-21 18 -23 29 -3 17 -21 7 -127 -68z"/>
</g>
</svg>
